<svg xmlns="http://www.w3.org/2000/svg" height="800" width="1200" viewBox="-47.23845 -25 409.3999 150"><path d="M62.703 42.709h25.139L48.952 2.355 28.768 23.253h15.233L62.703 42.71M28.692 23.253L9.956 42.71h37.449L28.692 23.253" fill="#1f52a6" fill-rule="evenodd"/><path d="M48.951 56.882v-2.334c-12.964 0-24.732-3.013-33.231-7.863C7.45 41.974 2.34 35.498 2.34 28.451c0-7.058 5.108-13.51 13.379-18.236 8.5-4.857 20.267-7.86 33.231-7.86V.002c-13.385 0-25.53 3.166-34.36 8.21C5.582 13.293 0 20.51 0 28.452c0 7.933 5.583 15.134 14.59 20.251 8.83 5.012 20.976 8.179 34.361 8.179zm0-56.88c13.358 0 25.503 3.166 34.341 8.21 8.986 5.081 14.594 12.298 14.594 20.24 0 7.933-5.608 15.134-14.594 20.251-8.838 5.012-20.983 8.179-34.34 8.179v-2.334c12.964 0 24.707-3.013 33.134-7.863 8.345-4.711 13.436-11.187 13.436-18.234 0-7.058-5.09-13.51-13.436-18.236-8.427-4.857-20.17-7.86-33.135-7.86V.002m163.984 18.553L198.187.002h-15.391v56.88h13.594V19.615l16.545 20.814 16.505-20.814v37.267h13.712V.002h-15.49l-14.727 18.553M112.128 56.882h13.623l4.369-10.289h17.764l4.367-10.208h-17.653l8.814-20.404 17.598 40.9h13.615L149.89.002h-13.278l-24.483 56.88m172.567-18.548l14.723 18.548h15.504V0h-13.7v37.197L284.696 16.46 268.16 37.197V0h-13.602v56.882h15.402l14.735-18.548" fill="#1f52a6" fill-rule="evenodd"/><path d="M120.256 90.68h2.043c.682 0 1.214-.106 1.59-.34.373-.225.638-.595.776-1.106.133-.483.075-.83-.173-1.049-.246-.214-.714-.32-1.4-.32h-2.066zm-1.597 5.851h2.403c1.47 0 2.35-.52 2.642-1.564.134-.497.05-.868-.242-1.099-.295-.239-.812-.353-1.573-.353h-2.411zm-1.545-11.683h8.793c.874 0 1.57.113 2.106.333.534.225.946.58 1.23 1.076.368.677.443 1.406.232 2.18a4.956 4.956 0 01-.984 1.89 4.34 4.34 0 01-1.671 1.23c-.272.094-.513.174-.727.23l-.011.046c1.007.24 1.689.667 2.035 1.278.347.607.383 1.428.1 2.454-.117.444-.31.878-.581 1.297-.265.43-.583.815-.946 1.152a5.87 5.87 0 01-1.187.866 4.95 4.95 0 01-1.325.513c-.483.113-1.285.22-2.42.314-.203.019-.399.019-.594.019h-8.113l4.063-14.878m29.832 0h4.663l-2.425 8.87a9.093 9.093 0 01-1.07 2.445 7.975 7.975 0 01-1.692 1.939 7.927 7.927 0 01-2.6 1.449c-.93.299-2.006.449-3.231.449-1.115 0-2.013-.06-2.704-.175-.69-.118-1.256-.31-1.7-.575-.439-.265-.83-.646-1.17-1.148-.366-.541-.577-1.188-.639-1.94-.058-.747.03-1.561.273-2.444l2.43-8.87h4.66l-2.488 9.082c-.216.814-.16 1.449.163 1.911.337.457.912.69 1.742.69.553 0 1.043-.1 1.487-.304a3.075 3.075 0 001.124-.891c.31-.387.539-.857.691-1.406l2.486-9.082m11.42 0h4.693l-4.073 14.878h-4.694l4.074-14.878m11.426 0h4.707l-3.072 11.224h7.33l-1.003 3.654h-12.036l4.074-14.878m13.342 0h14.267l-1.005 3.674h-4.768l-3.067 11.204h-4.713l3.06-11.204h-4.772l.998-3.674m29.206 0h14.262l-1.003 3.674h-4.77l-3.069 11.204h-4.709l3.058-11.204h-4.772l1.004-3.674m21.821 7.479c-.774 2.819-.105 4.22 2.007 4.22 1.07 0 1.964-.343 2.68-1.038.712-.701 1.266-1.754 1.646-3.163.252-.911.36-1.656.338-2.227-.028-.571-.193-1.028-.488-1.362-.4-.463-1.011-.694-1.84-.694-1.067 0-1.962.35-2.68 1.05-.718.702-1.272 1.773-1.663 3.214zm-4.711-.019a11.929 11.929 0 011.419-3.264 9.454 9.454 0 012.23-2.448 9.5 9.5 0 012.898-1.498c1.073-.338 2.233-.504 3.475-.504 1.244 0 2.311.17 3.198.511.89.344 1.579.833 2.064 1.472.482.639.774 1.434.86 2.373.092.946-.028 2.024-.359 3.236-.24.893-.547 1.7-.902 2.428a9.83 9.83 0 01-1.246 1.945 9.326 9.326 0 01-1.655 1.543 8.936 8.936 0 01-2.815 1.428c-1.011.303-2.135.453-3.392.453-1.282 0-2.351-.167-3.195-.496a4.571 4.571 0 01-2.058-1.567 4.708 4.708 0 01-.729-1.528 6.24 6.24 0 01-.178-1.853c.035-.676.165-1.42.385-2.23m32.617-7.461h4.462l-.683 8.312h.042l4.587-8.312h4.46l.057 8.312h.044l3.869-8.312h4.412l-7.411 14.878h-4.604l-.064-9.36h-.047l-5.211 9.36h-4.58l.667-14.878m26.433 0h4.689l-4.07 14.878h-4.693l4.074-14.878m11.446 0h4.392l3.431 8.23h.042l2.257-8.23h4.41l-4.076 14.878h-4.429l-3.403-8.17h-.044l-2.236 8.17h-4.416l4.072-14.878" fill="#1f52a6"/></svg>