<svg xmlns="http://www.w3.org/2000/svg" xmlns:xlink="http://www.w3.org/1999/xlink" height="800" width="1200" xml:space="preserve" y="0" x="0" id="レイヤー_1" version="1.1" viewBox="-1899.735 -490.66875 16464.37 2944.0125"><style id="style16716" type="text/css">.st0,.st1{clip-path:url(#SVGID_2_);fill:#595757}.st1{fill:#e6002d}</style><g transform="translate(-64 -18.3)" id="g16770"><defs id="defs16719"><path id="SVGID_1_" d="M64 10h12665.1v1980H64z"/></defs><clipPath id="SVGID_2_"><use height="100%" width="100%" y="0" x="0" id="use16721" xlink:href="#SVGID_1_" overflow="visible"/></clipPath><path id="path16724" clip-path="url(#SVGID_2_)" d="M8171 1581.2v-133.5c0-22.4.7-40.9 1.2-55 .8-14.3 1.7-25.7 2.4-33.9 1.1-8.9 1.9-15.8 3.3-20.3-63.3 0-110.3 9.7-142.9 28.7-32.7 19.2-53.4 51.2-53.4 96.1v403h1.9c4.8 36.3 23.1 63.3 51.5 79.9 32.5 19.1 79.5 28.8 142.9 28.8-1.3-4.5-2.2-11.3-3.3-20.2-.8-8.3-1.7-19.7-2.4-33.8-.5-14.3-1.2-32.7-1.2-55.2v-133.4z" class="st0"/><path id="path16726" clip-path="url(#SVGID_2_)" d="M7817.6 1888.7c-4.6-5.6-12-13.8-20.6-23.1l-128-143.7c51.4 0 96.1-17.9 133.6-53.8 37.6-35.9 56.6-79.5 56.6-130.5v-10.9c0-48.9-18.6-92.1-55.5-129.2-37-37.2-80.2-55.7-129.5-55.7h-448.8v467.3c0 59.6 16.3 102.1 49.2 127.5 32.7 25.3 86.4 37.9 146.9 37.9-1-5.8-1.9-14.9-3-26.9-.9-10.7-1.7-25.6-2-44.6-.7-18.8-1.1-43.3-1.1-73.1v-108.2h63.5l49.8 55.8c23.7 27.9 45.7 51.5 64.3 72.1l7.3 8.1c4.3 4.8 8.6 9.6 12.4 14 .9.9 1.7 1.7 2.4 2.7l12.6 14.2h.7c15.4 16.9 30.5 32 44.1 43.4 18.2 15.3 35.8 26.4 52.8 33.5 17.3 7.3 35.5 12 54.9 13.9 17.4 2.1 26.1 2.1 37.8 0 11.8-1.8 21.9-4.6 30.3-7.8 8.2-3.9 33.7-10.9 40.1-16.8-11.6-8.1-24.2-21.3-35.4-32-10.2-9-25.2-22.4-35.4-34.1m-402.1-261.6v-190.8h192.1c16.5 0 30.9 6.2 43.1 18.4 12.2 12.3 18.4 58.7 18.4 75.1 0 17.4-6.1 64.7-17.8 77.6-11.8 13.3-26.5 19.7-43.7 19.7z" class="st0"/><path id="path16728" clip-path="url(#SVGID_2_)" d="M4381.5 1452.7c12.3-11.8 26.7-17.7 43.6-17.7h164.6v-.4h5.2c34.5 0 61.2-14.4 79.9-36.9 18.9-22.3 15.8-22.7 28.1-57.2h-281v.2h-64.4c-48.5 0-91 18.5-128.1 55.2-37.1 36.8-55.3 79.3-55.3 127.8v263.7c0 49.2 18.2 92.2 55.3 129 37 36.9 80 55.3 129.3 55.3h236.1c34.5 0 61.2-14.7 79.9-37.1 18.9-22.4 15.8-22.8 28.1-57.2H4425c-16 0-30.4-6.3-43-18.9-12.5-12.6-18.9-26.9-18.9-42.9V1703h231.7c34.5 0 61.2-14.4 79.9-37 18.9-22.4 15.8-22.7 28.1-57.1h-339.7v-113.2c0-16.5 6.1-31 18.4-43" class="st0"/><path id="path16730" clip-path="url(#SVGID_2_)" d="M5568.1 1452.7c12.2-11.8 26.6-17.7 43.5-17.7h164.6v-.4h5.2c34.5 0 61.2-14.4 80-36.9 18.7-22.3 15.7-22.7 28-57.2h-281v.2H5544c-48.3 0-91.1 18.5-128 55.2-37 36.8-55.6 79.3-55.6 127.8v263.7c0 49.2 18.5 92.2 55.6 129 36.9 36.9 80 55.3 129.1 55.3h236.2c34.5 0 61.2-14.7 80-37.1 18.7-22.4 15.7-22.8 28-57.2h-277.8c-16.1 0-30.4-6.3-43-18.9-12.6-12.6-18.9-26.9-18.9-42.9V1703h231.7c34.5 0 61.2-14.4 80-37 18.7-22.4 15.7-22.7 28-57.1h-339.7v-113.2c.1-16.5 6.3-31 18.5-43" class="st0"/><path id="path16732" clip-path="url(#SVGID_2_)" d="M5056 1877.5c-16.5 0-31-6.3-43.5-18.6-12.1-12.3-18.4-26.8-18.4-43.1v-234.6l.7.2v-133.5c0-22.4 1-40.9 1.5-55.2.6-14.3 1.3-25.4 2.3-33.6 1.1-9 2.2-15.9 3.3-20.5-63.3 0-111.3 9.8-143.7 28.8-32.8 19.1-53.3 51.1-53.3 96.2v324.3c0 48.9 18.4 91.6 55.2 128.3 36.7 37 79.6 55.4 128.3 55.4h213.1c34.5 0 61.2-14.7 79.9-37 18.9-22.4 13.1-25 28.2-57.2H5056z" class="st0"/><path id="path16734" clip-path="url(#SVGID_2_)" d="M6198.9 1452.7c12.3-11.8 26.7-17.7 43.5-17.7h137.2v-.4h8.5c34.5 0 61.1-14.4 80-36.9 18.6-22.3 15.6-22.7 28-57.2H6215v.2h-40.1c-48.4 0-91.1 18.5-128 55.2-37.1 36.8-55.6 79.3-55.6 127.8v263.7c0 49.2 18.4 92.2 55.6 129 36.9 36.9 80 55.3 129.3 55.3h196.1v-.9h15.8c34.5 0 61.1-14.4 80-37.1 18.6-22.4 15.6-22.7 28-57.1H6234c-13-1.8-24.7-7.6-34.8-17.8-12.5-12.3-18.5-26.8-18.5-43.1v-319.8c0-16.7 6-31.2 18.2-43.2" class="st0"/><path id="path16736" clip-path="url(#SVGID_2_)" d="M8496.6 1452.7c12.2-11.8 26.9-17.7 43.6-17.7h136.9v-.4h8.6c34.5 0 61.1-14.4 80.1-36.9 18.5-22.3 15.5-22.7 28-57.2h-281v.2h-40.1c-48.6 0-91.2 18.5-128.3 55.2-37 36.8-55.5 79.3-55.5 127.8v263.7c0 49.2 18.5 92.2 55.5 129 37.1 36.9 80.2 55.3 129.4 55.3h196.1v-.9h15.8c34.5 0 61.1-14.4 80.1-37.1 18.5-22.4 15.5-22.7 28-57.1h-262.3c-12.8-1.8-24.4-7.6-34.6-17.8-12.5-12.3-18.6-26.8-18.6-43.1v-319.8c.1-16.7 6.2-31.2 18.3-43.2" class="st0"/><path id="path16738" clip-path="url(#SVGID_2_)" d="M6853.1 1340.7h-177.7c-34.5 0-61.2 14.6-79.9 36.9-18.7 22.5-16 22.8-28.1 57.3h190.5v407.6h2.8c5.6 40.7 21 71.3 46.6 91.1 32.9 25.3 86.6 38 147 38-1.1-6.1-1.8-15-2.9-27-.8-10.9-1.7-25.9-2.3-44.8-.6-18.8-1.8-43.1-1.8-73v-392h65.5v-.3h13.6c34.5 0 61.2-14.4 79.9-36.9 18.7-22.4 15.8-22.6 28-57.2h-281v.3z" class="st0"/><path id="path16740" clip-path="url(#SVGID_2_)" d="M11064.1 1341.7h-262.8c-49.6 0-92.7 18.3-129.6 54.7-36.6 36.5-54.9 79.6-54.9 129.2v262.8c0 48.6 18.3 91.3 54.9 128.1 36.9 36.8 79.8 55.2 128.3 55.2h262.7c49.1 0 92-18.4 128.9-55.2 36.6-36.8 54.9-79.6 54.9-128.7v-263.4c0-48.8-18.3-91.4-54.7-127.9-36.6-36.5-79.2-54.8-127.7-54.8m-6.4 474.3c0 16.4-6.1 30.8-18.4 43.1-12.1 12.4-26.3 18.5-42.7 18.5h-129.1c-16.4 0-30.7-6.1-43.2-18.5-12.4-12.4-18.4-26.8-18.4-43.1v-319.4c0-16.7 5.9-31.1 18.3-43.1 12.1-11.9 26.6-18 43.4-18h129.1c16.4 0 30.6 6.3 42.7 18.4 12.3 12.1 18.4 26.5 18.4 42.7V1816z" class="st0"/><path id="path16742" clip-path="url(#SVGID_2_)" d="M12671.1 1396.7c-36.6-36.7-79.7-55-128.7-55h-446.1V1823h1.1c2.6 51.9 17 90.3 46.8 113.6 33 25.2 86.8 37.8 147.2 37.8-.9-5.8-1.8-14.8-2.9-26.8-.8-10.8-1.8-25.7-2.3-44.6-.3-18.9-.9-43.3-.9-73.1v-24.4h258.3c48.8 0 91.4-18.5 127.8-55.1 36.5-36.8 54.7-79.4 54.7-127.7v-97.1c.1-49.1-18.3-92-55-128.9m-133.8 253.2c0 16.3-5.7 30.7-17.9 43.1-12.5 12.4-26.7 18.6-43.1 18.6h-190.9v-276.1h190.9c16.4 0 30.6 6.3 43.1 18.4 12.2 12.2 17.9 34.5 17.9 50.9z" class="st0"/><path id="path16744" clip-path="url(#SVGID_2_)" d="M10495.4 1888.7c-4.4-5.3-11.6-13.1-19.6-22l-129.1-144.8c51.5 0 96-17.9 133.7-53.8 37.7-35.9 56.5-79.5 56.5-130.5v-10.9c0-48.9-18.6-92.1-55.6-129.2-37.1-37.2-80.1-55.7-129.4-55.7h-448.8v467.3c0 59.6 16.4 102.1 49.2 127.5 32.7 25.3 86.4 37.9 147.1 37.9-1.1-5.8-2.2-14.9-3.1-26.9-.9-10.7-1.8-25.6-2.3-44.6-.3-18.8-.7-43.3-.7-73.1v-108.2h63.2l49.9 55.8c32.5 38.4 62.3 69 83.9 94.2 1.3 1.5 2.7 2.7 3.9 4.1l11.3 12.8h.5c15.6 16.9 30.5 32 44.4 43.4 18 15.3 35.5 26.4 52.7 33.5 17.1 7.3 35.5 12 55.1 13.9 17.1 2.1 25.9 2.1 37.7 0 11.6-1.8 21.6-4.6 30-7.8 8.3-3.9 33.7-10.9 40.1-16.8-11.6-8.1-24.3-21.3-35.4-32-10.1-9-25.1-22.4-35.2-34.1m-402-261.6v-190.8h191.8c16.4 0 30.7 6.2 43.1 18.4 12.2 12.3 18.4 58.7 18.4 75.1 0 17.4-6.1 64.7-17.7 77.6-11.9 13.3-26.3 19.7-43.8 19.7z" class="st0"/><path id="path16746" clip-path="url(#SVGID_2_)" d="M11781.6 1463.6v414.1h-191.4c-16.4 0-31-6.2-43.3-18.8-12.5-12.4-18.8-27-18.8-43.5v-367.7c0-22.5.7-41 1.5-55.2.3-14.3 1-25.4 2.3-33.7.8-9 1.8-15.8 2.8-20.4-63.1 0-111 9.8-143.4 28.8-32.5 19.2-53.2 51.2-53.2 96.2v324.3c0 48.9 18.4 92 55.4 128.8 36.8 37.1 79.8 55.6 128.8 55.6h398.9s24.3-1.4 36.8-15.4c13.5-14.9 13.7-33.4 13.7-33.4v-475.8c0-22.5.8-41 1.3-55.2.6-14.3 1.1-25.4 2.4-33.7 1.1-9 1.9-15.8 3-20.4-63.1 0-111.1 9.8-143.6 28.8-32.6 19.6-53.2 51.7-53.2 96.6" class="st0"/><path id="path16748" clip-path="url(#SVGID_2_)" d="M9693.1 1435.9c34.6 0 61.3-14.6 80.1-37.1 18.6-22.3 15.7-22.6 28-57h-446.5c-48.6 0-91.5 18.2-128.2 54.7-36.9 36.5-55.1 79.1-55.1 127.9v263.3c0 49.1 18.2 91.9 55.2 128.7 37 36.8 80.1 55.2 129.3 55.2h261.3c49.7 0 92.6-18.2 129.1-54.9 36.7-36.5 54.9-79.4 54.9-129v-178h-231.9c-34.3 0-60.9 14.4-79.9 36.9-18.8 22.4-16 22.7-28.1 57.2h150.9V1816c0 16.4-6.2 30.8-18.4 43.1-12.3 12.5-26.1 18.6-42.8 18.6h-129c-16.4 0-31-6.1-43.3-18.6-12.3-12.3-18.4-26.7-18.4-43.1v-319.4c0-16.3 6.2-30.6 18.4-42.8 12.3-12.1 26.9-18.4 43.3-18.4h98.1v.4h173z" class="st0"/><path id="path16750" clip-path="url(#SVGID_2_)" d="M4503.9 439.2h-226.7v-95.1c0-24.7 9-104.4 26.9-122 17.9-17.6 39.2-38 63.8-38h341.5c50.5 0 89.3-21.2 116.7-54 27.4-32.8 16.4-35.5 40.9-84.1h-598c-71 0-133.6 27-187.9 80.9-54.2 54-81.4 116.5-81.4 187.3v414.1c0 87.1 23.9 149.1 71.8 186.2 48.1 36.9 125.9 55.4 214.4 55.4-1.5-8.7-2.9-21.8-4.3-39.2-1.6-15.9-2.5-37.7-3.3-65.3-.7-27.5-1.2-63.1-1.2-153.4V577.5h432.3c50.5 0 89.3-20 116.7-53.1 27.4-33 16.4-31.5 40.9-85.2h-202.7z" class="st0"/><path id="path16752" clip-path="url(#SVGID_2_)" d="M6971.7 844.4c-6.7-7.8-17.3-19.6-29.5-33l-188-210.4c75.3 0 140.4-26.3 195.3-78.6 54.9-52.5 82.4-115.9 82.4-190.6v-15.6c0-71.7-26.9-134.6-80.8-188.9-54-54.3-117-81.3-189.1-81.3h-654.9v682.3c0 87.1 23.9 149.1 71.7 186.2 48 37 126.3 55.5 214.8 55.5-1.6-8.7-2.8-21.9-4.3-39.2-1.4-15.9-2.4-37.7-3.3-65.3-.6-27.5-1.3-63.1-1.3-106.6V600.8h92.3l73.1 81.6h-.3c47.8 56.1 91.1 100.6 122.7 137.2 31.7 36.5 60.6 66 87.3 88.2 26.6 22.2 52.3 38.5 77.4 49 24.9 10.7 51.8 17.4 80.2 20.3 25 2.9 38 2.9 55.2 0 17-2.9 31.7-6.8 43.9-11.6 12.2-5.7 49.2-15.8 58.5-24.4-16.9-11.6-35.4-31-51.6-46.5-15-13.6-36.9-33.1-51.7-50.2m-587.1-381.7V184h280.2c24.1 0 45.1 9 62.9 27 17.8 17.9 26.9 85.6 26.9 109.6 0 25.4-8.8 94.3-26 113.4-17.3 19.3-38.5 28.7-63.8 28.7z" class="st0"/><path id="path16754" clip-path="url(#SVGID_2_)" d="M9187.9 849.8c-3.2-3.4-7.4-8.2-12.7-13.8l-317.6-372.7 24.7-32.1 337.4-358.8S9069.5 10 8926.4 97.9c-57.8 35.5-51.2 35.2-107.6 97.4-61 67.3-140 148.6-211.4 220.6h-42.1V205.3c0-32.9 1.3-59.6 1.9-80.5.8-20.7 2-37.2 3.6-49.2 1.3-13.1 2.7-23 4.3-29.5-92.3 0-162 13.9-209.5 41.9-47.6 27.9-77.8 74.6-77.8 140.4V744h.4c3.1 78.7 26.6 135.8 71.3 170.6 48.1 36.9 126 55.5 214.5 55.5-1.4-8.8-3-21.9-4.5-39.3-1.4-15.9-2.3-37.6-3-65.3-.9-27.5-1.3-63.1-1.3-106.6l-.2-14.9h.2V601h122.5L8912 852.1s19.5 22.7 48.2 51.9c24.2 24.4 51.9 38.4 76.9 49 25.2 10.7 52.4 17.4 81.3 20.2 25.4 2.9 46.9 2.9 64.7 0 17.5-2.8 32.8-6.6 45.4-11.5 12.5-5.8 44-14.5 53.8-23.3-16.8-11.5-33.2-25-49.1-40.5-14.6-13.4-28.4-29.9-45.3-48.1" class="st0"/><path id="path16756" clip-path="url(#SVGID_2_)" d="M5646.7 228.3v604.3h-279.3c-24.2 0-45.3-9.2-63.4-27.4-18.1-18.1-27.2-39.1-27.2-63.3V205.4c0-33 1.2-59.7 2-80.6.8-20.7 1.8-37.2 3.3-49.2 1.5-13.1 2.9-23 4.3-29.5-92.3 0-161.9 13.9-209.4 41.8-47.6 27.9-77.9 74.7-77.9 140.5v473.3c0 71.5 27 134.3 81.1 188.2 53.9 54.1 116.7 81 188.1 81h582s35.7-2 54-22.4c19.5-21.7 19.8-48.6 19.8-48.6V205.4c0-33 1.5-59.7 2.2-80.6.7-20.7 1.8-37.2 3.3-49.2 1.5-13.1 2.9-23 4.3-29.5-92.1 0-161.9 13.9-209.4 41.8-47.6 27.9-77.8 74.6-77.8 140.4" class="st0"/><path id="path16758" clip-path="url(#SVGID_2_)" d="M7813.3 228.3v604.3h-279.5c-23.9 0-44.9-9.2-63.3-27.4-18-18.1-27.3-39.1-27.3-63.3V205.4c0-33 1.3-59.7 2-80.6.9-20.7 1.9-37.2 3.5-49.2 1.4-13.1 3-23 4.3-29.5-92.1 0-161.9 13.9-209.4 41.8-47.6 27.9-77.9 74.7-77.9 140.5v473.3c0 71.5 27 134.3 80.9 188.2 54.2 54.1 116.7 81 188.2 81h582.1s35.6-2 53.8-22.4c19.6-21.7 19.9-48.6 19.9-48.6V205.4c0-33 1.3-59.7 2.1-80.6.9-20.7 1.8-37.2 3.4-49.2 1.4-13.1 2.8-23 4.5-29.5-92.4 0-162 13.9-209.5 41.8-47.4 27.9-77.8 74.6-77.8 140.4" class="st0"/><path id="path16760" clip-path="url(#SVGID_2_)" d="M11422.2 211.3V742c0 24.1-8.1 45.1-24.5 63.2-16.5 18.3-35.6 27.5-57.7 27.5h-171.9V168.3s0-75.8-51.4-75.8h-144.4c-58.3 0-58.3 79.7-58.3 79.7v660.5h-171c-21.9 0-41.5-9.2-57.9-27.5-16.8-18.1-25-39.1-25-63.2V211.3c0-65.7-25.9-112.6-69.7-140.5-43.8-27.9-108-41.9-192.6-41.9 1.4 6.6 2.9 16.4 4.2 29.6 1.3 12 2.3 28.5 3 49.2.8 20.9 1.1 47.6 1.1 80.4v513.6c0 71.4 24.5 134.3 74 188.1 49.5 54.1 106.9 81 172.3 81h778.4c65.4 0 122.7-27 172-81 49-53.8 73.4-116.7 73.4-188.1V188.1c0-32.8.4-59.6 1.3-80.4.8-20.8 1.7-37.2 3-49.2 1.3-13.2 2.8-23 4-29.6-84.7 0-148.7 14-192.3 41.9-43.8 27.9-70 74.7-70 140.5" class="st0"/><path id="path16762" clip-path="url(#SVGID_2_)" d="M10267.3 873.5c-.7-27.7 0-79.4 0-122.9V316c0-72.1-27-135.1-80.9-189.2-54-53.9-116.9-80.9-189-80.9h-384c-72.9 0-136.1 27-190 80.9-53.8 54.1-81 117.1-81 189.2v444.9c.2 41.2.8 87 0 112.6-.8 27.5.5 49.3-.9 65.3-1.6 17.4-3 30.5-4.4 39.1 88.4 0 163.2-18.5 211.1-55.4 43.1-33.4 66.7-87.5 71-161.5h.7v-59.8H9990v49.5h.5c2.6 79.4 26.1 137 71.2 171.9 48 36.9 122.7 55.4 211.2 55.4-1.7-8.7-2.9-21.7-4.3-39.1-1.6-16.1-.5-38-1.3-65.4M9619.8 563V273.8c0-24.7 9.2-45.6 26.9-63.3 18-17.6 39.3-26.4 63.9-26.4h189.6c23.9 0 45 8.9 62.9 26.9 17.7 17.9 26.8 38.7 26.8 62.8V563z" class="st0"/><path id="path16764" clip-path="url(#SVGID_2_)" d="M12724.6 938.7c-1.4-15.9-.4-37.8-1-65.3-.7-27.7 0-79.4 0-122.9V316c0-72.1-27-135.1-81-189.2-53.8-53.9-116.9-80.9-189.2-80.9h-383.7c-72.8 0-136.1 27-190.3 80.9-54 54.1-80.8 117.1-80.8 189.2v444.9c0 41.2.7 87 0 112.6-.8 27.5.4 49.3-1.1 65.3-1.4 17.4-2.8 30.5-4.3 39.1 88.4 0 163.2-18.5 210.9-55.4 43.2-33.4 66.8-87.5 71-161.5h.9v-59.8h370.1v49.5h.3c2.7 79.4 26.3 137 71.3 171.9 48 36.9 122.7 55.4 211.2 55.4-1.5-8.8-2.9-21.9-4.3-39.3M12076.2 563V273.8c0-24.7 8.9-45.6 26.9-63.3 17.9-17.6 39.1-26.4 63.8-26.4h189.5c24.1 0 45.1 8.9 63.1 26.9 17.7 17.9 26.8 38.7 26.8 62.8V563z" class="st0"/><path id="polygon16766" clip-path="url(#SVGID_2_)" class="st1" d="M815 1476.8L1919.7 390.7l1104.8 1086.1h750.9L1919.7 18.3 64 1476.8z"/><path id="path16768" clip-path="url(#SVGID_2_)" d="M2878.8 1488.8l-140.4-131.3-224.2 119.3H1324.7l-224.2-119.3-140.4 131.3c-51.9 52.3-17.8 144.7 3.7 192.5 22 48.8 44.4 116.2 88.4 212.4 44.1 96.3 136.2 92.2 204.5 56.1 212.2-72.1 467-120.2 662.9-120.2 195.6.1 450.6 48.1 662.6 120.2 68.4 36.1 160.5 40.2 204.5-56.1 43.9-96.1 66.3-163.5 88.4-212.4 21.5-47.8 55.5-140.2 3.7-192.5" class="st1"/></g></svg>